<svg width="256" height="256" viewBox="0 0 256 256" fill="none" xmlns="http://www.w3.org/2000/svg">
<rect x="3.41333" y="0.97522" width="249.661" height="249.661" fill="#CCD9D9"/>
<path d="M48 192C51.1645 192 54.258 192.938 56.8891 194.696C59.5203 196.455 61.5711 198.953 62.7821 201.877C63.9931 204.801 64.3099 208.018 63.6926 211.121C63.0752 214.225 61.5514 217.076 59.3137 219.314C57.0761 221.551 54.2252 223.075 51.1215 223.693C48.0178 224.31 44.8007 223.993 41.8771 222.782C38.9535 221.571 36.4546 219.52 34.6965 216.889C32.9384 214.258 32 211.165 32 208C32 203.757 33.6857 199.687 36.6863 196.686C39.6869 193.686 43.7566 192 48 192V192ZM48 176C41.671 176 35.4841 177.877 30.2218 181.393C24.9594 184.909 20.8579 189.907 18.4359 195.754C16.0139 201.601 15.3802 208.035 16.6149 214.243C17.8496 220.45 20.8973 226.152 25.3726 230.627C29.8479 235.103 35.5497 238.15 41.7571 239.385C47.9645 240.62 54.3986 239.986 60.2459 237.564C66.0931 235.142 71.0908 231.041 74.607 225.778C78.1232 220.516 80 214.329 80 208C80 199.513 76.6286 191.374 70.6274 185.373C64.6263 179.371 56.4869 176 48 176V176Z" fill="#287474"/>
<path d="M128 32C131.165 32 134.258 32.9384 136.889 34.6965C139.52 36.4546 141.571 38.9534 142.782 41.8771C143.993 44.8007 144.31 48.0177 143.693 51.1214C143.075 54.2251 141.551 57.0761 139.314 59.3137C137.076 61.5513 134.225 63.0752 131.121 63.6926C128.018 64.3099 124.801 63.9931 121.877 62.7821C118.953 61.5711 116.455 59.5203 114.697 56.8891C112.938 54.2579 112 51.1645 112 48C112 43.7565 113.686 39.6869 116.686 36.6863C119.687 33.6857 123.757 32 128 32ZM128 16C121.671 16 115.484 17.8768 110.222 21.393C104.959 24.9092 100.858 29.9069 98.4359 35.7541C96.0139 41.6014 95.3802 48.0355 96.6149 54.2429C97.8496 60.4503 100.897 66.1521 105.373 70.6274C109.848 75.1027 115.55 78.1504 121.757 79.3851C127.965 80.6199 134.399 79.9862 140.246 77.5641C146.093 75.1421 151.091 71.0406 154.607 65.7782C158.123 60.5159 160 54.329 160 48C160 39.5131 156.629 31.3737 150.627 25.3726C144.626 19.3714 136.487 16 128 16Z" fill="#287474"/>
<path d="M208 32C211.165 32 214.258 32.9384 216.889 34.6965C219.52 36.4546 221.571 38.9534 222.782 41.8771C223.993 44.8007 224.31 48.0177 223.693 51.1214C223.075 54.2251 221.551 57.0761 219.314 59.3137C217.076 61.5513 214.225 63.0752 211.121 63.6926C208.018 64.3099 204.801 63.9931 201.877 62.7821C198.953 61.5711 196.455 59.5203 194.697 56.8891C192.938 54.2579 192 51.1645 192 48C192 43.7565 193.686 39.6869 196.686 36.6863C199.687 33.6857 203.757 32 208 32V32ZM208 16C201.671 16 195.484 17.8768 190.222 21.393C184.959 24.9092 180.858 29.9069 178.436 35.7541C176.014 41.6014 175.38 48.0355 176.615 54.2429C177.85 60.4503 180.897 66.1521 185.373 70.6274C189.848 75.1027 195.55 78.1504 201.757 79.3851C207.965 80.6199 214.399 79.9862 220.246 77.5641C226.093 75.1421 231.091 71.0406 234.607 65.7782C238.123 60.5159 240 54.329 240 48C240 39.5131 236.629 31.3737 230.627 25.3726C224.626 19.3714 216.487 16 208 16Z" fill="#287474"/>
<path d="M144 192V224H112V192H144ZM160 176H96V240H160V176Z" fill="#287474"/>
<path d="M216 177.12V136C216 131.757 214.314 127.687 211.314 124.686C208.313 121.686 204.243 120 200 120H56V80H80V16H16V80H40V120C40 124.243 41.6857 128.313 44.6863 131.314C47.6869 134.314 51.7565 136 56 136H200V177.12C192.459 179.067 185.886 183.698 181.515 190.144C177.144 196.59 175.274 204.409 176.255 212.136C177.236 219.863 181.002 226.966 186.846 232.115C192.69 237.263 200.211 240.104 208 240.104C215.789 240.104 223.31 237.263 229.154 232.115C234.998 226.966 238.764 219.863 239.745 212.136C240.726 204.409 238.856 196.59 234.485 190.144C230.114 183.698 223.541 179.067 216 177.12ZM26.5752 33.6457H69.4857V64.8533L24.6248 62.659L26.5752 33.6457ZM208 224C204.835 224 201.742 223.062 199.111 221.304C196.48 219.545 194.429 217.047 193.218 214.123C192.007 211.199 191.69 207.982 192.307 204.879C192.925 201.775 194.449 198.924 196.686 196.686C198.924 194.449 201.775 192.925 204.879 192.307C207.982 191.69 211.199 192.007 214.123 193.218C217.047 194.429 219.545 196.48 221.304 199.111C223.062 201.742 224 204.835 224 208C224 212.243 222.314 216.313 219.314 219.314C216.313 222.314 212.243 224 208 224Z" fill="#287474"/>
<path d="M207.97 180.419C223.455 180.419 236.008 192.972 236.008 208.457C236.008 223.943 223.455 236.495 207.97 236.495C192.484 236.495 179.931 223.943 179.931 208.457C179.931 192.972 192.484 180.419 207.97 180.419ZM219.185 211.261H196.754V216.869H219.185V211.261ZM219.185 200.046H196.754V205.653H219.185V200.046Z" fill="#287474"/>
<path d="M47.7867 18.5295C63.9454 18.5295 77.0438 31.628 77.0438 47.7867C77.0438 63.9454 63.9454 77.0438 47.7867 77.0438C31.6279 77.0438 18.5295 63.9454 18.5295 47.7867C18.5295 31.628 31.6279 18.5295 47.7867 18.5295ZM39.0095 36.0838C32.5495 36.0838 27.3067 41.3267 27.3067 47.7867C27.3081 50.046 27.9633 52.2566 29.1933 54.1517C30.4232 56.0469 32.1754 57.5456 34.2382 58.4671C36.301 59.3886 38.5865 59.6934 40.8187 59.3447C43.0509 58.9961 45.1346 58.009 46.8182 56.5024L47.2834 56.0606L43.1465 51.9236C42.3431 52.7271 41.3232 53.2794 40.2113 53.5129C39.0994 53.7465 37.9435 53.6512 36.8847 53.2389C35.826 52.8265 34.9103 52.1148 34.2492 51.1906C33.5882 50.2665 33.2106 49.1699 33.1623 48.0347C33.1141 46.8996 33.3974 45.7749 33.9777 44.7981C34.558 43.8212 35.4101 43.0344 36.4301 42.5337C37.45 42.0331 38.5936 41.8402 39.7214 41.9786C40.8491 42.117 41.9122 42.5808 42.7808 43.3133L43.1494 43.6526L47.2864 39.5157C46.2009 38.4265 44.9109 37.5625 43.4905 36.9736C42.0701 36.3846 40.5472 36.0822 39.0095 36.0838ZM59.4895 36.0838C53.0295 36.0838 47.7867 41.3267 47.7867 47.7867C47.7881 50.046 48.4433 52.2566 49.6733 54.1517C50.9032 56.0469 52.6554 57.5456 54.7182 58.4671C56.781 59.3886 59.0665 59.6934 61.2987 59.3447C63.5309 58.9961 65.6146 58.009 67.2982 56.5024L67.7634 56.0606L63.6265 51.9236C62.8231 52.7271 61.8032 53.2794 60.6913 53.5129C59.5794 53.7465 58.4235 53.6512 57.3647 53.2389C56.306 52.8265 55.3902 52.1148 54.7292 51.1906C54.0682 50.2665 53.6906 49.1699 53.6423 48.0347C53.5941 46.8996 53.8774 45.7749 54.4577 44.7981C55.038 43.8212 55.8901 43.0344 56.9101 42.5337C57.93 42.0331 59.0737 41.8402 60.2014 41.9786C61.3291 42.117 62.3922 42.5808 63.2607 43.3133L63.6294 43.6526L67.7664 39.5157C66.6809 38.4265 65.3909 37.5625 63.9705 36.9736C62.5501 36.3846 61.0272 36.0822 59.4895 36.0838Z" fill="#287474"/>
<path d="M127.756 22.9181C140.945 22.9181 151.65 33.95 151.65 47.5429C151.65 61.1357 140.945 72.1676 127.756 72.1676C114.567 72.1676 103.863 61.1357 103.863 47.5429C103.863 33.95 114.567 22.9181 127.756 22.9181ZM127.756 32.768C122.727 32.768 118.423 36.6095 116.663 42.0515L116.488 42.6179H113.42L119.394 50.0053L125.367 42.6179H121.546C122.786 39.6752 125.104 37.6929 127.756 37.6929C131.715 37.6929 134.924 42.1008 134.924 47.5429C134.924 52.9849 131.715 57.3928 127.756 57.3928C125.252 57.3928 123.047 55.6272 121.764 52.9529L121.549 52.4678H116.49C118.127 58.2054 122.555 62.3177 127.756 62.3177C134.353 62.3177 139.703 55.7035 139.703 47.5429C139.703 39.3822 134.353 32.768 127.756 32.768Z" fill="#287474"/>
<path d="M207.97 22.9181C221.764 22.9181 232.96 33.8408 232.96 47.299C232.96 60.7573 221.764 71.68 207.97 71.68C194.175 71.68 182.979 60.7573 182.979 47.299C182.979 33.8408 194.175 22.9181 207.97 22.9181ZM207.97 32.6705C201.07 32.6705 195.474 39.2192 195.474 47.299C195.474 55.3789 201.07 61.9276 207.97 61.9276C214.869 61.9276 220.465 55.3789 220.465 47.299C220.465 39.2192 214.869 32.6705 207.97 32.6705ZM213.78 41.1355C214.834 42.8178 215.467 44.9633 215.467 47.299C215.467 52.6872 212.11 57.0514 207.97 57.0514C207.025 57.0514 206.12 56.8247 205.288 56.4102L204.878 56.1859L213.78 41.1355ZM207.97 37.5467C208.914 37.5467 209.819 37.7734 210.651 38.1879L211.061 38.4122L202.159 53.4625C201.105 51.7803 200.472 49.6347 200.472 47.299C200.472 41.9109 203.829 37.5467 207.97 37.5467Z" fill="#287474"/>
<rect x="88.7467" y="99.4742" width="75.0933" height="57.0514" fill="white"/>
<path d="M163.998 90.047H88.5794C83.3802 90.047 79.1521 94.2751 79.1521 99.4743V156.038C79.1521 161.237 83.3802 165.465 88.5794 165.465H163.998C169.197 165.465 173.425 161.237 173.425 156.038V99.4743C173.425 94.2751 169.197 90.047 163.998 90.047ZM100.364 104.188C102.239 104.188 104.037 104.933 105.363 106.259C106.689 107.585 107.434 109.383 107.434 111.258C107.434 113.134 106.689 114.932 105.363 116.258C104.037 117.584 102.239 118.329 100.364 118.329C98.4883 118.329 96.6899 117.584 95.3639 116.258C94.038 114.932 93.293 113.134 93.293 111.258C93.293 109.383 94.038 107.585 95.3639 106.259C96.6899 104.933 98.4883 104.188 100.364 104.188V104.188ZM126.289 151.324H93.293L112.148 127.756L119.218 137.184L133.359 118.329L159.284 151.324H126.289Z" fill="#DA419D"/>
</svg>
